<svg width="62" height="45" viewBox="0 0 62 45" fill="none" xmlns="http://www.w3.org/2000/svg">
<g id="&#225;&#132;&#140;&#225;&#133;&#161;&#225;&#132;&#137;&#225;&#133;&#161;&#225;&#134;&#171; 2 1" clip-path="url(#clip0_11_665)">
<g id="&#235;&#160;&#136;&#236;&#157;&#180;&#236;&#150;&#180;_1">
<g id="Group">
<path id="Vector" d="M19.5066 0.237976C18.0103 0.237976 16.7451 1.19249 16.5911 2.46884C16.3674 4.2901 15.9969 7.5852 15.9969 9.61126C15.9969 11.524 17.0275 13.2355 18.6374 14.3582C19.1655 14.7276 19.4186 15.1336 19.4186 15.4737V16.3916C19.3562 17.1669 18.6594 25.8125 18.6594 27.3887C18.6594 27.897 18.7768 28.4017 19.0078 28.8735C19.2352 29.3453 19.5726 29.7731 19.9943 30.1316C20.4161 30.49 20.9185 30.7789 21.4723 30.9727C22.0261 31.1665 22.6165 31.2689 23.2179 31.2689C23.8194 31.2689 24.4098 31.1702 24.9636 30.9727C25.5174 30.7789 26.0198 30.4936 26.4415 30.1316C26.8633 29.7695 27.2007 29.3453 27.428 28.8735C27.6554 28.4017 27.7764 27.897 27.7764 27.3887C27.7764 25.8125 27.0833 17.1669 27.0173 16.3916V16.3295V15.4737C27.0173 15.1299 27.2667 14.7276 27.7984 14.3582C28.6236 13.7841 29.291 13.0563 29.7458 12.2371C30.2005 11.4142 30.4389 10.5182 30.4389 9.61126C30.4389 7.5852 30.0722 4.28645 29.8448 2.46884C29.7678 1.85444 29.4304 1.28758 28.8913 0.877978C28.3449 0.46472 27.6444 0.237976 26.9219 0.237976C26.2288 0.237976 25.587 0.442777 25.0846 0.786549C24.5492 0.431805 23.8927 0.237976 23.2143 0.237976C22.5358 0.237976 21.8794 0.431805 21.3439 0.786549C20.8232 0.428148 20.174 0.237976 19.5066 0.237976ZM22.4551 2.82358C22.4551 2.6517 22.5358 2.48713 22.6788 2.36644C22.8219 2.24575 23.0162 2.17627 23.2143 2.17627C23.4123 2.17627 23.6103 2.24575 23.7497 2.36644C23.8927 2.48713 23.9734 2.6517 23.9734 2.82358V9.61126C23.9734 9.86726 24.0944 10.1159 24.3071 10.2988C24.5198 10.4817 24.8096 10.5841 25.114 10.5841C25.4183 10.5841 25.7044 10.4817 25.9208 10.2988C26.1335 10.1159 26.2545 9.87092 26.2545 9.61126V2.74678C26.2545 2.59684 26.3242 2.45055 26.4489 2.3445C26.5736 2.23844 26.7459 2.17627 26.9219 2.17627C27.263 2.17627 27.5417 2.39204 27.5747 2.66998C27.7984 4.50587 28.1542 7.70223 28.1542 9.61126C28.1542 10.233 27.9928 10.8474 27.6811 11.4106C27.3694 11.9738 26.9146 12.4675 26.3462 12.8625C25.5284 13.433 24.7325 14.3363 24.7325 15.4773V16.3331C24.7325 16.3989 24.7325 16.4575 24.7399 16.5269C24.8059 17.3608 25.4917 25.9039 25.4917 27.3923C25.4917 27.908 25.2533 28.4017 24.8242 28.7638C24.3952 29.1258 23.8157 29.3306 23.2143 29.3306C22.6128 29.3306 22.0297 29.1258 21.6043 28.7638C21.1752 28.4017 20.9369 27.908 20.9369 27.3923C20.9369 25.9039 21.619 17.3608 21.6887 16.5269C21.696 16.4575 21.696 16.3989 21.696 16.3331V15.4773C21.696 14.3326 20.9002 13.433 20.0824 12.8625C19.5176 12.4675 19.0628 11.9738 18.7475 11.4106C18.4357 10.8474 18.2744 10.233 18.2744 9.61126C18.2744 7.70223 18.6301 4.50587 18.8538 2.66998C18.8721 2.53467 18.9492 2.40667 19.0665 2.31524C19.1875 2.22381 19.3416 2.17627 19.5029 2.17627C19.679 2.17627 19.8513 2.23478 19.976 2.3445C20.1007 2.45055 20.1704 2.59684 20.1704 2.74678V9.61126C20.1704 9.86726 20.2914 10.1159 20.5041 10.2988C20.7168 10.4817 21.0065 10.5841 21.3109 10.5841C21.6153 10.5841 21.9014 10.4817 22.1177 10.2988C22.3304 10.1159 22.4515 9.87092 22.4515 9.61126V2.82358H22.4551ZM42.9665 2.18358V14.7825C42.9665 15.236 43.1096 17.3644 43.2673 19.7087L43.2746 19.844C43.4873 22.9928 43.7257 26.5219 43.7257 27.3887C43.7257 27.9043 43.4873 28.3981 43.0582 28.7601C42.6292 29.1222 42.0497 29.327 41.4483 29.327C40.8468 29.327 40.2637 29.1222 39.8383 28.7601C39.4092 28.3981 39.1709 27.9043 39.1709 27.3887C39.1709 26.6207 39.3579 23.5048 39.5486 20.5352C39.6623 18.7944 39.776 17.0536 39.8933 15.3128L39.9263 14.8373V14.7788C39.9263 14.5228 39.809 14.2741 39.5926 14.0913C39.3799 13.9084 39.0902 13.806 38.7858 13.806H35.7456C35.6465 13.806 35.5475 13.7731 35.4778 13.7109C35.4082 13.6488 35.3678 13.5683 35.3678 13.4842V8.95663C35.3678 7.21217 36.1563 5.53353 37.5719 4.27182C38.9875 3.0101 40.9165 2.26038 42.9665 2.17627V2.18358ZM37.5792 15.7553L37.5316 16.4757C37.4619 17.5327 37.3629 18.9589 37.2712 20.4364C37.0841 23.3695 36.8898 26.5585 36.8898 27.396C36.8898 27.9043 37.0071 28.409 37.2382 28.8808C37.4655 29.3526 37.8029 29.7805 38.2247 30.1389C38.6464 30.4973 39.1488 30.7862 39.7026 30.98C40.2564 31.1738 40.8468 31.2762 41.4483 31.2762C42.0497 31.2762 42.6402 31.1775 43.1939 30.98C43.7477 30.7862 44.2501 30.5009 44.6719 30.1389C45.0936 29.7768 45.431 29.3526 45.6584 28.8808C45.8857 28.409 46.0068 27.9043 46.0068 27.396C46.0068 26.4634 45.7684 22.905 45.5594 19.8257L45.552 19.7416C45.387 17.2876 45.244 15.1775 45.244 14.7898V1.20712C45.244 0.951121 45.1229 0.702435 44.9102 0.519577C44.6975 0.340376 44.4078 0.237976 44.1034 0.237976H43.3443C40.6268 0.237976 38.0156 1.15592 36.094 2.79433C34.1723 4.43273 33.0904 6.65262 33.0904 8.9676V13.4952C33.0904 14.7459 34.2823 15.7589 35.7492 15.7589H37.5792V15.7553Z" fill="white"/>
<g id="Group_2">
<path id="Vector_2" d="M31.1907 44.6285C18.058 44.6285 6.48754 38.3236 3.04757 29.2977C2.98523 29.1368 2.92655 28.9759 2.87154 28.8113C2.6735 28.2371 2.97789 27.6154 3.55367 27.4179C4.12577 27.2205 4.75288 27.524 4.95092 28.0982C4.9986 28.2372 5.04994 28.3798 5.10128 28.5188C8.22219 36.7144 18.9491 42.4342 31.1871 42.4342C43.425 42.4342 55.1054 36.1366 57.6286 27.4582C57.7973 26.8767 58.406 26.5402 58.9928 26.7085C59.5759 26.8767 59.9133 27.4874 59.7409 28.0689C56.9501 37.6653 44.9396 44.6285 31.1871 44.6285H31.1907Z" fill="white"/>
<path id="Vector_3" d="M60.8998 30.2961C60.4047 30.2961 59.9573 29.9633 59.8326 29.4623C59.6493 28.7235 59.1908 28.1018 58.5381 27.7105C57.8853 27.3192 57.1188 27.2022 56.3817 27.385C55.7876 27.5313 55.1934 27.1729 55.0504 26.5841C54.9037 25.9953 55.2631 25.4029 55.8536 25.2566C57.1628 24.9311 58.5197 25.1359 59.6749 25.8307C60.8301 26.5256 61.648 27.6264 61.9707 28.932C62.1174 29.5208 61.758 30.1133 61.1675 30.2595C61.0795 30.2815 60.9878 30.2925 60.9035 30.2925L60.8998 30.2961Z" fill="white"/>
<path id="Vector_4" d="M1.10022 30.2961C1.0122 30.2961 0.924188 30.2852 0.836172 30.2632C0.245731 30.1169 -0.113668 29.5208 0.0330251 28.9357C0.704148 26.2403 3.45098 24.591 6.15381 25.2602C6.74425 25.4065 7.10365 26.0026 6.95696 26.5878C6.81026 27.1729 6.21616 27.535 5.62571 27.3887C4.1001 27.012 2.55249 27.9409 2.17108 29.4623C2.04639 29.9633 1.59898 30.2961 1.10389 30.2961H1.10022Z" fill="white"/>
</g>
</g>
</g>
</g>
<defs>
<clipPath id="clip0_11_665">
<rect width="62" height="44.3905" fill="white" transform="translate(0 0.237976)"/>
</clipPath>
</defs>
</svg>
