<svg width="37" height="36" viewBox="0 0 37 36" fill="none" xmlns="http://www.w3.org/2000/svg">
<g id="Camera" clip-path="url(#clip0_11_690)">
<g id="Icon">
<path d="M35.2479 28.4918C35.2479 29.2868 34.932 30.0493 34.3699 30.6115C33.8077 31.1737 33.0452 31.4895 32.2502 31.4895H5.27128C4.47625 31.4895 3.71378 31.1737 3.15161 30.6115C2.58944 30.0493 2.27362 29.2868 2.27362 28.4918V12.0047C2.27362 11.2097 2.58944 10.4472 3.15161 9.88504C3.71378 9.32287 4.47625 9.00705 5.27128 9.00705H11.2666L14.2643 4.51056H23.2572L26.2549 9.00705H32.2502C33.0452 9.00705 33.8077 9.32287 34.3699 9.88504C34.932 10.4472 35.2479 11.2097 35.2479 12.0047V28.4918Z" stroke="white" stroke-width="3.59719" stroke-linecap="round" stroke-linejoin="round"/>
<path d="M18.7607 25.4942C22.0719 25.4942 24.7561 22.81 24.7561 19.4988C24.7561 16.1877 22.0719 13.5035 18.7607 13.5035C15.4496 13.5035 12.7654 16.1877 12.7654 19.4988C12.7654 22.81 15.4496 25.4942 18.7607 25.4942Z" stroke="white" stroke-width="3.59719" stroke-linecap="round" stroke-linejoin="round"/>
</g>
</g>
<defs>
<clipPath id="clip0_11_690">
<rect width="35.9719" height="35.9719" fill="white" transform="translate(0.775146 0.0140381)"/>
</clipPath>
</defs>
</svg>
