<svg width="254" height="52" viewBox="0 0 254 52" fill="none" xmlns="http://www.w3.org/2000/svg">
<rect width="254" height="52" rx="15" fill="#FF4444"/>
<path d="M56.6475 28.342H71.1605V36.07H68.1015V30.734H56.6475V28.342ZM68.1015 14.749H71.1605V27.353H68.1015V14.749ZM63.7545 19.832H68.8605V22.293H63.7545V19.832ZM54.2095 16.29H64.2835V26.203H54.2095V16.29ZM61.2705 18.705H57.2225V23.811H61.2705V18.705ZM84.1307 15.807C88.6157 15.807 92.0887 18.268 92.0887 21.971C92.0887 25.697 88.6157 28.135 84.1307 28.135C79.6457 28.135 76.1727 25.697 76.1727 21.971C76.1727 18.268 79.6457 15.807 84.1307 15.807ZM84.1307 18.291C81.2327 18.291 79.1627 19.671 79.1627 21.971C79.1627 24.248 81.2327 25.628 84.1307 25.628C87.0287 25.628 89.0987 24.248 89.0987 21.971C89.0987 19.671 87.0287 18.291 84.1307 18.291ZM74.5167 30.987H93.7907V33.494H74.5167V30.987ZM105.933 18.084H111.292V20.522H105.933V18.084ZM105.933 22.661H111.384V25.099H105.933V22.661ZM96.5259 16.451H106.6V26.87H96.5259V16.451ZM103.587 18.866H99.5389V24.478H103.587V18.866ZM110.418 14.772H113.477V30.274H110.418V14.772ZM99.3779 33.241H113.937V35.679H99.3779V33.241ZM99.3779 28.802H102.46V34.506H99.3779V28.802ZM128.899 15.6C132.142 15.6 134.488 17.463 134.488 20.154C134.488 22.799 132.142 24.708 128.899 24.708C125.679 24.708 123.333 22.799 123.333 20.154C123.333 17.463 125.679 15.6 128.899 15.6ZM128.899 18.084C127.358 18.084 126.254 18.82 126.254 20.154C126.254 21.465 127.358 22.201 128.899 22.201C130.463 22.201 131.567 21.465 131.567 20.154C131.567 18.82 130.463 18.084 128.899 18.084ZM127.473 26.824H130.532V35.403H127.473V26.824ZM136.788 14.749H139.824V36.047H136.788V14.749ZM122.436 28.434L122.068 25.95C125.794 25.95 131.061 25.904 135.569 25.214L135.776 27.445C131.153 28.365 126.116 28.411 122.436 28.434ZM157.923 14.749H160.982V27.606H157.923V14.749ZM155.255 20.982H159.165V23.466H155.255V20.982ZM146.791 28.503H160.982V35.817H146.791V28.503ZM157.992 30.918H149.804V33.402H157.992V30.918ZM143.226 16.589H155.669V19.004H143.226V16.589ZM149.459 19.694C152.426 19.694 154.542 21.281 154.542 23.535C154.542 25.812 152.426 27.353 149.459 27.353C146.492 27.353 144.353 25.812 144.353 23.535C144.353 21.281 146.492 19.694 149.459 19.694ZM149.459 21.971C148.148 21.971 147.274 22.5 147.274 23.535C147.274 24.57 148.148 25.122 149.459 25.122C150.747 25.122 151.621 24.57 151.621 23.535C151.621 22.5 150.747 21.971 149.459 21.971ZM147.918 14.565H150.977V18.314H147.918V14.565ZM164.292 17.946H174.481V20.384H164.292V17.946ZM169.421 21.327C172.135 21.327 174.09 23.42 174.09 26.41C174.09 29.377 172.135 31.47 169.421 31.47C166.73 31.47 164.752 29.377 164.752 26.41C164.752 23.42 166.73 21.327 169.421 21.327ZM169.421 23.88C168.271 23.88 167.466 24.8 167.466 26.41C167.466 28.02 168.271 28.917 169.421 28.917C170.571 28.917 171.399 28.02 171.399 26.41C171.399 24.8 170.571 23.88 169.421 23.88ZM179.702 14.749H182.623V36.047H179.702V14.749ZM177.149 23.397H180.668V25.858H177.149V23.397ZM175.24 15.14H178.092V35.15H175.24V15.14ZM167.926 15.324H170.939V19.487H167.926V15.324ZM189.728 25.559H192.764V31.539H189.728V25.559ZM197.456 25.559H200.515V31.539H197.456V25.559ZM185.496 31.102H204.77V33.586H185.496V31.102ZM195.11 15.784C199.687 15.784 203.068 18.038 203.068 21.511C203.068 24.984 199.687 27.215 195.11 27.215C190.51 27.215 187.152 24.984 187.152 21.511C187.152 18.038 190.51 15.784 195.11 15.784ZM195.11 18.176C192.143 18.176 190.165 19.395 190.165 21.511C190.165 23.604 192.143 24.846 195.11 24.846C198.077 24.846 200.055 23.604 200.055 21.511C200.055 19.395 198.077 18.176 195.11 18.176ZM208.047 28.6094L207.856 17.7944H210.439L210.237 28.6094H208.047ZM209.148 34.1572C208.699 34.1572 208.324 34.015 208.025 33.7305C207.733 33.4385 207.587 33.0716 207.587 32.6299C207.587 32.1882 207.733 31.825 208.025 31.5405C208.324 31.2485 208.699 31.1025 209.148 31.1025C209.605 31.1025 209.979 31.2485 210.271 31.5405C210.563 31.825 210.709 32.1882 210.709 32.6299C210.709 33.0716 210.563 33.4385 210.271 33.7305C209.979 34.015 209.605 34.1572 209.148 34.1572Z" fill="white"/>
</svg>
