<svg width="254" height="52" viewBox="0 0 254 52" fill="none" xmlns="http://www.w3.org/2000/svg">
<rect width="254" height="52" rx="15" fill="#FF4444"/>
<path d="M84.0514 27.055C83.5301 27.0703 83.1314 26.94 82.8554 26.664C82.5947 26.388 82.4567 25.9893 82.4414 25.468L82.3264 17.763C82.3111 17.2263 82.4567 16.8277 82.7634 16.567C83.0701 16.291 83.4611 16.153 83.9364 16.153L95.8504 16.107C96.0957 16.107 96.2874 16.1837 96.4254 16.337C96.5787 16.475 96.6554 16.6667 96.6554 16.912V18.683C96.6554 18.9283 96.5787 19.1277 96.4254 19.281C96.2874 19.419 96.0957 19.488 95.8504 19.488L86.4434 19.603V23.513L96.0574 23.536C96.5634 23.536 96.8164 23.743 96.8164 24.157V26.02C96.8164 26.434 96.6017 26.6487 96.1724 26.664L84.0514 27.055ZM81.6134 32.989C81.3987 33.0043 81.2301 32.943 81.1074 32.805C80.9847 32.6823 80.9234 32.5137 80.9234 32.299V30.298C80.9234 30.0833 80.9847 29.9147 81.1074 29.792C81.2301 29.6693 81.3987 29.608 81.6134 29.608L97.3914 29.562C97.6061 29.562 97.7747 29.6233 97.8974 29.746C98.0201 29.8687 98.0814 30.0373 98.0814 30.252V32C98.0814 32.2147 98.0201 32.3757 97.8974 32.483C97.7747 32.6057 97.6061 32.6747 97.3914 32.69L81.6134 32.989ZM114.128 33.334C113.668 33.334 113.438 33.104 113.438 32.644V16.36C113.438 15.9 113.66 15.67 114.105 15.67H116.911C117.371 15.67 117.593 15.9 117.578 16.36L117.072 32.644C117.072 33.104 116.842 33.334 116.382 33.334H114.128ZM99.2007 29.125C99.0013 28.8183 99.078 28.4963 99.4307 28.159C101.025 26.7177 102.206 25.0847 102.973 23.26C103.739 21.42 104.092 19.3117 104.031 16.935C104.015 16.5823 104.1 16.3217 104.284 16.153C104.468 15.9843 104.69 15.9 104.951 15.9H107.412C107.718 15.9 107.948 15.9997 108.102 16.199C108.255 16.383 108.324 16.6283 108.309 16.935C108.278 17.8243 108.201 18.6907 108.079 19.534C107.956 20.3773 107.78 21.2053 107.55 22.018C108.194 22.9993 108.937 23.904 109.781 24.732C110.624 25.56 111.46 26.296 112.288 26.94C112.487 27.1087 112.587 27.285 112.587 27.469C112.602 27.6377 112.556 27.7833 112.449 27.906L110.471 29.585C110.348 29.7383 110.195 29.8303 110.011 29.861C109.842 29.8917 109.65 29.8227 109.436 29.654C108.776 29.0867 108.155 28.4733 107.573 27.814C107.005 27.1393 106.476 26.4263 105.986 25.675C105.449 26.5797 104.813 27.4383 104.077 28.251C103.356 29.0483 102.513 29.7997 101.547 30.505C101.332 30.6583 101.117 30.7043 100.903 30.643C100.703 30.5817 100.542 30.4667 100.42 30.298L99.2007 29.125ZM122.106 26.71C121.677 26.71 121.339 26.5873 121.094 26.342C120.864 26.0967 120.741 25.7593 120.726 25.33L120.427 17.119C120.412 16.6897 120.527 16.3523 120.772 16.107C121.033 15.8617 121.378 15.739 121.807 15.739L129.673 15.693C130.102 15.693 130.44 15.8157 130.685 16.061C130.93 16.3063 131.045 16.6437 131.03 17.073L131.007 17.372H133.652L133.629 15.67C133.629 15.21 133.851 14.98 134.296 14.98H137.102C137.562 14.98 137.784 15.21 137.769 15.67L137.539 28.389C137.508 28.849 137.278 29.079 136.849 29.079H134.457C133.997 29.079 133.767 28.849 133.767 28.389L133.721 24.916H130.846V25.238C130.831 25.6673 130.7 26.0047 130.455 26.25C130.225 26.4953 129.895 26.618 129.466 26.618L122.106 26.71ZM125.993 35.496C125.472 35.5113 125.073 35.381 124.797 35.105C124.536 34.829 124.398 34.4303 124.383 33.909L124.245 28.895C124.214 28.435 124.437 28.205 124.912 28.205H127.442C127.887 28.205 128.109 28.435 128.109 28.895L128.063 32.184L136.849 32.276C137.294 32.276 137.516 32.4753 137.516 32.874V34.622C137.516 35.0973 137.309 35.335 136.895 35.335L125.993 35.496ZM124.199 23.536L127.304 23.513V18.867H124.153L124.199 23.536ZM130.915 21.742H133.698L133.675 20.546H130.938L130.915 21.742ZM147.374 23.858C146.868 23.4133 146.469 22.8843 146.178 22.271C145.902 21.6577 145.764 20.983 145.764 20.247C145.764 19.511 145.902 18.8363 146.178 18.223C146.469 17.5943 146.86 17.05 147.351 16.59C147.842 16.13 148.424 15.7773 149.099 15.532C149.789 15.2713 150.54 15.141 151.353 15.141C152.135 15.141 152.863 15.2713 153.538 15.532C154.213 15.7773 154.795 16.13 155.286 16.59C155.792 17.05 156.183 17.5943 156.459 18.223C156.75 18.8363 156.896 19.511 156.896 20.247C156.896 20.983 156.758 21.6577 156.482 22.271C156.206 22.8843 155.815 23.4133 155.309 23.858C154.818 24.2873 154.236 24.6247 153.561 24.87C152.886 25.1 152.15 25.215 151.353 25.215C150.571 25.215 149.835 25.1 149.145 24.87C148.47 24.6247 147.88 24.2873 147.374 23.858ZM149.651 20.247C149.651 20.7837 149.843 21.236 150.226 21.604C150.625 21.972 151.115 22.156 151.698 22.156C152.281 22.156 152.764 21.972 153.147 21.604C153.53 21.236 153.722 20.7837 153.722 20.247C153.722 19.7103 153.53 19.258 153.147 18.89C152.764 18.5067 152.281 18.315 151.698 18.315C151.069 18.315 150.571 18.5067 150.203 18.89C149.835 19.258 149.651 19.7103 149.651 20.247ZM159.771 33.334C159.311 33.334 159.081 33.104 159.081 32.644V16.36C159.081 15.9 159.303 15.67 159.748 15.67H162.554C163.014 15.67 163.236 15.9 163.221 16.36L162.715 32.644C162.715 33.104 162.485 33.334 162.025 33.334H159.771ZM150.042 33.518C149.613 33.518 149.398 33.2803 149.398 32.805L149.329 29.332C148.102 29.378 146.883 29.401 145.672 29.401C145.457 29.401 145.289 29.3397 145.166 29.217C145.043 29.0943 144.982 28.9257 144.982 28.711V26.871C144.982 26.6563 145.043 26.4877 145.166 26.365C145.289 26.2423 145.457 26.181 145.672 26.181C147.681 26.181 149.628 26.1503 151.514 26.089C153.415 26.0277 155.363 25.8897 157.356 25.675C157.77 25.629 158 25.8207 158.046 26.25L158.299 27.86C158.33 28.0747 158.276 28.2357 158.138 28.343C158.015 28.4503 157.862 28.5193 157.678 28.55C157.003 28.688 156.275 28.803 155.493 28.895C154.726 28.987 153.914 29.0713 153.055 29.148L153.032 32.851C153.032 33.2957 152.802 33.518 152.342 33.518H150.042ZM170.44 35.749C170.088 35.749 169.812 35.6417 169.612 35.427C169.413 35.2277 169.306 34.9517 169.29 34.599L169.175 28.941C169.16 28.5883 169.26 28.3123 169.474 28.113C169.689 27.9137 169.973 27.8063 170.325 27.791L181.641 27.607C181.994 27.5917 182.278 27.6913 182.492 27.906C182.707 28.1207 182.807 28.4043 182.791 28.757L182.653 34.76C182.638 35.1127 182.531 35.3503 182.331 35.473C182.132 35.611 181.856 35.68 181.503 35.68L170.44 35.749ZM173.131 32.92L178.95 32.874V30.482L173.131 30.551V32.92ZM179.985 26.779C179.525 26.779 179.295 26.549 179.295 26.089L179.249 23.421H177.846C177.601 23.421 177.402 23.352 177.248 23.214C177.11 23.0607 177.041 22.8613 177.041 22.616V20.822C177.041 20.5767 177.11 20.385 177.248 20.247C177.402 20.0937 177.601 20.017 177.846 20.017H179.203L179.157 15.67C179.157 15.21 179.38 14.98 179.824 14.98H182.63C183.09 14.98 183.313 15.21 183.297 15.67L183.067 26.089C183.037 26.549 182.807 26.779 182.377 26.779H179.985ZM165.909 19.626C165.695 19.626 165.526 19.5647 165.403 19.442C165.281 19.3193 165.219 19.1507 165.219 18.936V17.073C165.219 16.8583 165.281 16.6897 165.403 16.567C165.526 16.4443 165.695 16.383 165.909 16.383H169.428L169.704 14.244C169.766 13.784 170.065 13.577 170.601 13.623L173.154 13.945C173.691 14.0217 173.898 14.3283 173.775 14.865L173.476 16.36H176.742C177.126 16.36 177.317 16.5517 177.317 16.935V18.775C177.317 19.1583 177.126 19.35 176.742 19.35L175.592 19.396C176.282 20.1167 176.627 21.0213 176.627 22.11C176.627 22.754 176.505 23.3597 176.259 23.927C176.029 24.479 175.684 24.9697 175.224 25.399C174.78 25.8283 174.235 26.1657 173.591 26.411C172.963 26.6563 172.257 26.779 171.475 26.779C170.678 26.779 169.957 26.6563 169.313 26.411C168.685 26.1657 168.14 25.8283 167.68 25.399C167.236 24.9697 166.891 24.479 166.645 23.927C166.4 23.3597 166.277 22.754 166.277 22.11C166.277 21.6347 166.346 21.1823 166.484 20.753C166.638 20.3083 166.845 19.925 167.105 19.603L165.909 19.626ZM169.497 21.857C169.497 22.4857 169.689 22.9917 170.072 23.375C170.456 23.7583 170.962 23.95 171.59 23.95C172.188 23.95 172.679 23.7583 173.062 23.375C173.446 22.9917 173.637 22.4857 173.637 21.857C173.637 21.2283 173.446 20.7223 173.062 20.339C172.679 19.9557 172.188 19.764 171.59 19.764C170.962 19.764 170.456 19.9557 170.072 20.339C169.689 20.7223 169.497 21.2283 169.497 21.857ZM196.796 33.334C196.336 33.334 196.106 33.104 196.106 32.644L195.876 16.59C195.876 16.13 196.098 15.9 196.543 15.9H199.119C199.579 15.9 199.801 16.13 199.786 16.59L199.694 21.788L200.821 21.765V16.36C200.821 15.9 201.043 15.67 201.488 15.67H204.064C204.524 15.67 204.746 15.9 204.731 16.36L204.225 32.644C204.225 33.104 203.995 33.334 203.535 33.334H201.511C201.051 33.334 200.821 33.104 200.821 32.644V25.376L199.625 25.399L199.51 32.644C199.51 33.104 199.28 33.334 198.82 33.334H196.796ZM186.952 29.792C186.522 29.378 186.193 28.895 185.963 28.343C185.733 27.7757 185.618 27.17 185.618 26.526C185.618 25.8973 185.733 25.307 185.963 24.755C186.193 24.1877 186.522 23.697 186.952 23.283C187.381 22.869 187.887 22.5393 188.47 22.294C189.068 22.0487 189.727 21.926 190.448 21.926C191.168 21.926 191.82 22.0487 192.403 22.294C193.001 22.5393 193.514 22.869 193.944 23.283C194.373 23.697 194.703 24.1877 194.933 24.755C195.163 25.307 195.278 25.8973 195.278 26.526C195.278 27.17 195.163 27.7757 194.933 28.343C194.703 28.895 194.373 29.378 193.944 29.792C193.514 30.206 193.001 30.5357 192.403 30.781C191.82 31.011 191.168 31.126 190.448 31.126C189.727 31.126 189.068 31.011 188.47 30.781C187.887 30.5357 187.381 30.206 186.952 29.792ZM185.917 21.351C185.702 21.351 185.533 21.2897 185.411 21.167C185.288 21.0443 185.227 20.8757 185.227 20.661V18.683C185.227 18.4683 185.288 18.2997 185.411 18.177C185.533 18.0543 185.702 17.993 185.917 17.993H188.401L188.7 15.67C188.776 15.164 189.075 14.957 189.597 15.049L191.69 15.486C192.211 15.578 192.418 15.8847 192.311 16.406L191.989 17.97H194.68C195.063 17.97 195.255 18.1617 195.255 18.545V20.5C195.255 20.8833 195.063 21.075 194.68 21.075L185.917 21.351ZM188.861 26.572C188.861 27.0167 189.014 27.3923 189.321 27.699C189.627 28.0057 190.041 28.159 190.563 28.159C191.084 28.159 191.498 28.0057 191.805 27.699C192.111 27.3923 192.265 27.0167 192.265 26.572C192.265 26.1273 192.111 25.7517 191.805 25.445C191.498 25.1383 191.084 24.985 190.563 24.985C190.041 24.985 189.627 25.1383 189.321 25.445C189.014 25.7517 188.861 26.1273 188.861 26.572ZM207.08 33.219C206.866 33.2343 206.697 33.173 206.574 33.035C206.452 32.9123 206.39 32.7437 206.39 32.529V30.643C206.39 30.4283 206.452 30.2597 206.574 30.137C206.697 30.0143 206.866 29.953 207.08 29.953H209.518L209.495 26.71C209.48 26.25 209.695 26.0123 210.139 25.997H210.277C210.124 25.905 209.978 25.7977 209.84 25.675C209.196 25.1537 208.69 24.525 208.322 23.789C207.954 23.0377 207.77 22.202 207.77 21.282C207.77 20.362 207.954 19.5263 208.322 18.775C208.69 18.0083 209.196 17.3567 209.84 16.82C210.5 16.2833 211.266 15.8693 212.14 15.578C213.014 15.2867 213.957 15.141 214.969 15.141C215.981 15.141 216.924 15.2867 217.798 15.578C218.672 15.8693 219.431 16.2833 220.075 16.82C220.719 17.3567 221.225 18.0083 221.593 18.775C221.977 19.5263 222.168 20.362 222.168 21.282C222.168 22.202 221.977 23.0377 221.593 23.789C221.225 24.525 220.719 25.1537 220.075 25.675C219.937 25.7977 219.792 25.905 219.638 25.997H219.822C220.313 25.9663 220.543 26.1887 220.512 26.664L220.466 29.907H222.858C223.073 29.907 223.242 29.9683 223.364 30.091C223.487 30.2137 223.548 30.3823 223.548 30.597V32.23C223.548 32.4447 223.487 32.6057 223.364 32.713C223.242 32.8357 223.073 32.9047 222.858 32.92L207.08 33.219ZM212.163 22.662C212.347 22.9993 212.593 23.2907 212.899 23.536C213.206 23.766 213.566 23.95 213.98 24.088C214.394 24.2107 214.839 24.272 215.314 24.272C215.774 24.272 216.211 24.2107 216.625 24.088C217.039 23.95 217.4 23.766 217.706 23.536C218.028 23.2907 218.274 22.9993 218.442 22.662C218.626 22.3093 218.718 21.926 218.718 21.512C218.718 21.098 218.626 20.7223 218.442 20.385C218.274 20.0323 218.028 19.7333 217.706 19.488C217.4 19.2427 217.039 19.0587 216.625 18.936C216.211 18.798 215.774 18.729 215.314 18.729C214.824 18.729 214.371 18.798 213.957 18.936C213.543 19.0587 213.183 19.2427 212.876 19.488C212.57 19.7333 212.332 20.0323 212.163 20.385C211.995 20.7223 211.91 21.098 211.91 21.512C211.91 21.926 211.995 22.3093 212.163 22.662ZM213.451 29.93H216.533L216.51 27.17C216.004 27.2467 215.491 27.285 214.969 27.285C214.448 27.285 213.95 27.2543 213.474 27.193L213.451 29.93ZM226.369 28.228C225.909 28.228 225.679 27.998 225.679 27.538L224.943 16.613C224.943 16.153 225.166 15.923 225.61 15.923H229.336C229.796 15.923 230.019 16.153 230.003 16.613L229.313 27.538C229.313 27.998 229.083 28.228 228.623 28.228H226.369ZM227.381 33.817C226.799 33.817 226.3 33.61 225.886 33.196C225.488 32.7973 225.288 32.3067 225.288 31.724C225.288 31.1413 225.488 30.6507 225.886 30.252C226.3 29.838 226.799 29.631 227.381 29.631C227.964 29.631 228.455 29.838 228.853 30.252C229.267 30.6507 229.474 31.1413 229.474 31.724C229.474 32.3067 229.267 32.7973 228.853 33.196C228.455 33.61 227.964 33.817 227.381 33.817Z" fill="white"/>
</svg>
