<svg width="25" height="25" viewBox="0 0 25 25" fill="none" xmlns="http://www.w3.org/2000/svg">
<path d="M11.5 4.44969H4.5C3.96957 4.44969 3.46086 4.6604 3.08579 5.03548C2.71071 5.41055 2.5 5.91926 2.5 6.44969V20.4497C2.5 20.9801 2.71071 21.4888 3.08579 21.8639C3.46086 22.239 3.96957 22.4497 4.5 22.4497H18.5C19.0304 22.4497 19.5391 22.239 19.9142 21.8639C20.2893 21.4888 20.5 20.9801 20.5 20.4497V13.4497M19 2.94969C19.3978 2.55186 19.9374 2.32837 20.5 2.32837C21.0626 2.32837 21.6022 2.55186 22 2.94969C22.3978 3.34751 22.6213 3.88708 22.6213 4.44969C22.6213 5.0123 22.3978 5.55186 22 5.94969L12.5 15.4497L8.5 16.4497L9.5 12.4497L19 2.94969Z" stroke="white" stroke-width="2.5" stroke-linecap="round" stroke-linejoin="round"/>
</svg>
