<svg width="25" height="24" viewBox="0 0 25 24" fill="none" xmlns="http://www.w3.org/2000/svg">
<path d="M11.5 4.00023H4.5C3.96957 4.00023 3.46086 4.21094 3.08579 4.58601C2.71071 4.96109 2.5 5.46979 2.5 6.00023V20.0002C2.5 20.5307 2.71071 21.0394 3.08579 21.4144C3.46086 21.7895 3.96957 22.0002 4.5 22.0002H18.5C19.0304 22.0002 19.5391 21.7895 19.9142 21.4144C20.2893 21.0394 20.5 20.5307 20.5 20.0002V13.0002M19 2.50023C19.3978 2.1024 19.9374 1.87891 20.5 1.87891C21.0626 1.87891 21.6022 2.1024 22 2.50023C22.3978 2.89805 22.6213 3.43762 22.6213 4.00023C22.6213 4.56284 22.3978 5.1024 22 5.50023L12.5 15.0002L8.5 16.0002L9.5 12.0002L19 2.50023Z" stroke="#51CE54" stroke-width="2.5" stroke-linecap="round" stroke-linejoin="round"/>
</svg>
