<svg width="254" height="52" viewBox="0 0 254 52" fill="none" xmlns="http://www.w3.org/2000/svg">
<rect width="254" height="52" rx="15" fill="#51CE54"/>
<path d="M81.3356 27.84C80.7916 27.856 80.3756 27.72 80.0876 27.432C79.8156 27.144 79.6716 26.728 79.6556 26.184L79.5356 18.144C79.5196 17.584 79.6716 17.168 79.9916 16.896C80.3116 16.608 80.7196 16.464 81.2156 16.464L93.6476 16.416C93.9036 16.416 94.1036 16.496 94.2476 16.656C94.4076 16.8 94.4876 17 94.4876 17.256V19.104C94.4876 19.36 94.4076 19.568 94.2476 19.728C94.1036 19.872 93.9036 19.944 93.6476 19.944L83.8316 20.064V24.144L93.8636 24.168C94.3916 24.168 94.6556 24.384 94.6556 24.816V26.76C94.6556 27.192 94.4316 27.416 93.9836 27.432L81.3356 27.84ZM78.7916 34.032C78.5676 34.048 78.3916 33.984 78.2636 33.84C78.1356 33.712 78.0716 33.536 78.0716 33.312V31.224C78.0716 31 78.1356 30.824 78.2636 30.696C78.3916 30.568 78.5676 30.504 78.7916 30.504L95.2556 30.456C95.4796 30.456 95.6556 30.52 95.7836 30.648C95.9116 30.776 95.9756 30.952 95.9756 31.176V33C95.9756 33.224 95.9116 33.392 95.7836 33.504C95.6556 33.632 95.4796 33.704 95.2556 33.72L78.7916 34.032ZM96.9035 30C96.6955 29.68 96.7755 29.344 97.1435 28.992C97.9755 28.24 98.6955 27.448 99.3035 26.616C99.9115 25.784 100.408 24.896 100.792 23.952C101.192 22.992 101.48 21.968 101.656 20.88C101.832 19.776 101.904 18.576 101.872 17.28C101.856 16.912 101.944 16.64 102.136 16.464C102.328 16.288 102.56 16.2 102.832 16.2H105.4C105.72 16.2 105.96 16.304 106.12 16.512C106.28 16.704 106.352 16.96 106.336 17.28C106.304 18.272 106.216 19.224 106.072 20.136C105.944 21.048 105.752 21.928 105.496 22.776C106.12 23.88 106.816 24.848 107.584 25.68C107.664 25.76 107.744 25.84 107.824 25.92C107.744 25.792 107.704 25.632 107.704 25.44V23.568C107.704 23.312 107.776 23.112 107.92 22.968C108.08 22.808 108.288 22.728 108.544 22.728L112.12 22.776V21.672L108.544 21.72C108.288 21.72 108.08 21.648 107.92 21.504C107.776 21.344 107.704 21.136 107.704 20.88V19.008C107.704 18.752 107.776 18.552 107.92 18.408C108.08 18.248 108.288 18.168 108.544 18.168L112.12 18.216V16.68C112.12 16.2 112.352 15.96 112.816 15.96H115.744C116.224 15.96 116.456 16.2 116.44 16.68L115.912 33.672C115.912 34.152 115.672 34.392 115.192 34.392H112.84C112.36 34.392 112.12 34.152 112.12 33.672V26.232L108.544 26.28C108.352 26.28 108.192 26.24 108.064 26.16C108.72 26.8 109.432 27.4 110.2 27.96C110.424 28.12 110.536 28.296 110.536 28.488C110.536 28.68 110.48 28.84 110.368 28.968L108.304 30.72C108.176 30.88 107.992 30.96 107.752 30.96C107.528 30.96 107.312 30.872 107.104 30.696C105.84 29.64 104.72 28.312 103.743 26.712C103.2 27.576 102.568 28.4 101.848 29.184C101.128 29.968 100.296 30.72 99.3515 31.44C99.1275 31.6 98.9035 31.648 98.6795 31.584C98.4715 31.52 98.3035 31.4 98.1755 31.224L96.9035 30ZM119.245 34.272C119.021 34.288 118.845 34.224 118.717 34.08C118.589 33.952 118.525 33.776 118.525 33.552V31.584C118.525 31.36 118.589 31.184 118.717 31.056C118.845 30.928 119.021 30.864 119.245 30.864H125.389L125.365 27.24L121.789 27.36C121.245 27.376 120.829 27.24 120.541 26.952C120.253 26.664 120.109 26.248 120.109 25.704L119.989 17.904C119.973 17.344 120.125 16.928 120.445 16.656C120.765 16.368 121.173 16.224 121.669 16.224L134.101 16.176C134.357 16.176 134.557 16.256 134.701 16.416C134.861 16.56 134.941 16.76 134.941 17.016V18.864C134.941 19.12 134.861 19.328 134.701 19.488C134.557 19.632 134.357 19.704 134.101 19.704L124.285 19.824V23.664L134.317 23.688C134.845 23.688 135.109 23.904 135.109 24.336V26.28C135.109 26.712 134.885 26.936 134.437 26.952L129.661 27.12L129.613 30.84L135.709 30.816C135.933 30.816 136.109 30.88 136.237 31.008C136.365 31.136 136.429 31.312 136.429 31.536V33.24C136.429 33.464 136.365 33.632 136.237 33.744C136.109 33.872 135.933 33.944 135.709 33.96L119.245 34.272ZM143.374 31.128C143.374 30.904 143.438 30.728 143.566 30.6C143.694 30.472 143.87 30.408 144.094 30.408C144.718 30.408 145.342 30.408 145.966 30.408C146.59 30.392 147.214 30.376 147.838 30.36L147.814 27.432L145.726 27.504C145.182 27.52 144.766 27.384 144.478 27.096C144.206 26.808 144.062 26.392 144.046 25.848L143.782 17.928C143.766 17.368 143.918 16.952 144.238 16.68C144.558 16.392 144.966 16.248 145.462 16.248L154.51 16.2C154.766 16.2 154.966 16.28 155.11 16.44C155.27 16.584 155.35 16.784 155.35 17.04V19.032C155.35 19.288 155.27 19.496 155.11 19.656C154.966 19.8 154.766 19.872 154.51 19.872L147.982 19.992L148.03 23.808L155.11 23.832C155.638 23.832 155.902 24.048 155.902 24.48V26.424C155.902 26.856 155.678 27.08 155.23 27.096L151.966 27.24L151.942 30.12C152.614 30.072 153.262 30.008 153.886 29.928C154.526 29.848 155.158 29.76 155.782 29.664C156.182 29.6 156.43 29.792 156.526 30.24L156.814 31.896C156.862 32.12 156.822 32.288 156.694 32.4C156.566 32.512 156.406 32.592 156.214 32.64C155.398 32.832 154.502 33 153.526 33.144C152.55 33.288 151.542 33.4 150.502 33.48C149.462 33.576 148.398 33.648 147.31 33.696C146.222 33.744 145.15 33.768 144.094 33.768C143.87 33.768 143.694 33.704 143.566 33.576C143.438 33.448 143.374 33.272 143.374 33.048V31.128ZM158.446 34.392C157.966 34.392 157.726 34.152 157.726 33.672V16.68C157.726 16.2 157.958 15.96 158.422 15.96H161.35C161.83 15.96 162.062 16.2 162.046 16.68L161.518 33.672C161.518 34.152 161.278 34.392 160.798 34.392H158.446ZM169.099 26.256C168.875 26.176 168.747 26.032 168.715 25.824C168.683 25.616 168.707 25.368 168.787 25.08C168.995 24.312 169.171 23.456 169.315 22.512C169.475 21.568 169.571 20.648 169.603 19.752H164.803C164.403 19.752 164.203 19.552 164.203 19.152V16.872C164.203 16.472 164.403 16.272 164.803 16.272H172.339C172.755 16.272 173.099 16.392 173.371 16.632C173.643 16.856 173.779 17.216 173.779 17.712V17.952C173.779 18.496 173.747 19.056 173.683 19.632H173.707H175.555L175.483 16.2C175.483 15.72 175.715 15.48 176.179 15.48H178.747C179.227 15.48 179.459 15.72 179.443 16.2L179.155 25.872C179.155 26.352 178.915 26.592 178.435 26.592H176.443C175.963 26.592 175.723 26.352 175.723 25.872L175.651 22.992H173.707C173.483 22.992 173.291 22.936 173.131 22.824C173.019 23.32 172.883 23.816 172.723 24.312C172.515 25 172.275 25.648 172.003 26.256C171.907 26.464 171.763 26.632 171.571 26.76C171.395 26.888 171.195 26.912 170.971 26.832L169.099 26.256ZM166.483 35.184C166.323 35.024 166.283 34.84 166.363 34.632C166.443 34.44 166.595 34.28 166.819 34.152C167.923 33.512 168.779 32.744 169.387 31.848C169.995 30.952 170.283 29.976 170.251 28.92C170.235 28.552 170.323 28.28 170.515 28.104C170.707 27.928 170.939 27.84 171.211 27.84H173.131C173.451 27.84 173.683 27.944 173.827 28.152C173.971 28.344 174.051 28.6 174.067 28.92C174.067 29.16 174.059 29.392 174.043 29.616C174.027 29.84 173.995 30.064 173.947 30.288C174.411 30.8 174.867 31.2 175.315 31.488C175.763 31.76 176.267 31.984 176.827 32.16C177.099 31.648 177.307 31.112 177.451 30.552C177.595 29.976 177.675 29.392 177.691 28.8C177.691 28.432 177.779 28.16 177.955 27.984C178.147 27.808 178.379 27.72 178.651 27.72H180.571C180.891 27.72 181.123 27.824 181.267 28.032C181.411 28.224 181.491 28.48 181.507 28.8C181.523 29.296 181.491 29.784 181.411 30.264C181.331 30.744 181.219 31.216 181.075 31.68C181.587 32.192 182.147 32.632 182.755 33C183.379 33.368 184.003 33.664 184.627 33.888C184.851 33.968 184.987 34.112 185.035 34.32C185.083 34.528 185.067 34.712 184.987 34.872L183.835 36.576C183.723 36.736 183.579 36.848 183.403 36.912C183.243 36.992 183.035 36.976 182.779 36.864C182.187 36.624 181.619 36.304 181.075 35.904C180.547 35.504 180.043 35.032 179.563 34.488C179.067 35.128 178.499 35.696 177.859 36.192C177.235 36.704 176.555 37.136 175.819 37.488C175.595 37.6 175.371 37.624 175.147 37.56C174.923 37.496 174.739 37.384 174.595 37.224L173.683 36.144C173.539 35.968 173.499 35.784 173.563 35.592C173.643 35.4 173.795 35.24 174.019 35.112L174.499 34.8C174.147 34.608 173.819 34.392 173.515 34.152C173.211 33.912 172.915 33.624 172.627 33.288C172.147 33.976 171.563 34.592 170.875 35.136C170.187 35.696 169.435 36.16 168.619 36.528C168.395 36.64 168.171 36.664 167.947 36.6C167.723 36.536 167.539 36.424 167.395 36.264L166.483 35.184ZM181.123 26.592C180.643 26.592 180.403 26.352 180.403 25.872V15.96C180.403 15.48 180.635 15.24 181.099 15.24H183.667C184.147 15.24 184.379 15.48 184.363 15.96L183.835 25.872C183.835 26.352 183.595 26.592 183.115 26.592H181.123ZM201.527 34.392C201.047 34.392 200.807 34.152 200.807 33.672V25.032L198.863 25.056C198.783 25.408 198.679 25.744 198.551 26.064C198.231 26.88 197.783 27.584 197.207 28.176C196.631 28.768 195.943 29.224 195.143 29.544C194.359 29.848 193.495 30 192.551 30C191.607 30 190.735 29.848 189.935 29.544C189.135 29.224 188.439 28.768 187.847 28.176C187.271 27.584 186.815 26.88 186.479 26.064C186.159 25.232 185.999 24.296 185.999 23.256C185.999 22.232 186.159 21.296 186.479 20.448C186.815 19.6 187.271 18.872 187.847 18.264C188.439 17.656 189.135 17.192 189.935 16.872C190.735 16.536 191.607 16.368 192.551 16.368C193.495 16.368 194.359 16.536 195.143 16.872C195.943 17.192 196.631 17.656 197.207 18.264C197.783 18.872 198.231 19.6 198.551 20.448C198.663 20.736 198.759 21.024 198.839 21.312L200.807 21.336V16.68C200.807 16.2 201.039 15.96 201.503 15.96H204.431C204.911 15.96 205.143 16.2 205.127 16.68L204.599 33.672C204.599 34.152 204.359 34.392 203.879 34.392H201.527ZM191.039 25.56C191.519 26.104 192.143 26.376 192.911 26.376C193.679 26.376 194.295 26.104 194.759 25.56C195.223 25 195.455 24.232 195.455 23.256C195.455 22.28 195.223 21.512 194.759 20.952C194.295 20.392 193.679 20.112 192.911 20.112C192.095 20.112 191.463 20.392 191.015 20.952C190.567 21.512 190.343 22.28 190.343 23.256C190.343 24.232 190.575 25 191.039 25.56ZM207.932 34.272C207.708 34.288 207.532 34.224 207.404 34.08C207.276 33.952 207.212 33.776 207.212 33.552V31.584C207.212 31.36 207.276 31.184 207.404 31.056C207.532 30.928 207.708 30.864 207.932 30.864H210.476L210.452 27.48C210.436 27 210.66 26.752 211.124 26.736H211.268C211.108 26.64 210.956 26.528 210.812 26.4C210.14 25.856 209.612 25.2 209.228 24.432C208.844 23.648 208.652 22.776 208.652 21.816C208.652 20.856 208.844 19.984 209.228 19.2C209.612 18.4 210.14 17.72 210.812 17.16C211.5 16.6 212.3 16.168 213.212 15.864C214.124 15.56 215.108 15.408 216.164 15.408C217.22 15.408 218.204 15.56 219.116 15.864C220.028 16.168 220.82 16.6 221.492 17.16C222.164 17.72 222.692 18.4 223.076 19.2C223.476 19.984 223.676 20.856 223.676 21.816C223.676 22.776 223.476 23.648 223.076 24.432C222.692 25.2 222.164 25.856 221.492 26.4C221.348 26.528 221.196 26.64 221.036 26.736H221.228C221.74 26.704 221.98 26.936 221.948 27.432L221.9 30.816H224.396C224.62 30.816 224.796 30.88 224.924 31.008C225.052 31.136 225.116 31.312 225.116 31.536V33.24C225.116 33.464 225.052 33.632 224.924 33.744C224.796 33.872 224.62 33.944 224.396 33.96L207.932 34.272ZM213.236 23.256C213.428 23.608 213.684 23.912 214.004 24.168C214.324 24.408 214.7 24.6 215.132 24.744C215.564 24.872 216.028 24.936 216.524 24.936C217.004 24.936 217.46 24.872 217.892 24.744C218.324 24.6 218.7 24.408 219.02 24.168C219.356 23.912 219.612 23.608 219.788 23.256C219.98 22.888 220.076 22.488 220.076 22.056C220.076 21.624 219.98 21.232 219.788 20.88C219.612 20.512 219.356 20.2 219.02 19.944C218.7 19.688 218.324 19.496 217.892 19.368C217.46 19.224 217.004 19.152 216.524 19.152C216.012 19.152 215.54 19.224 215.108 19.368C214.676 19.496 214.3 19.688 213.98 19.944C213.66 20.2 213.412 20.512 213.236 20.88C213.06 21.232 212.972 21.624 212.972 22.056C212.972 22.488 213.06 22.888 213.236 23.256ZM214.58 30.84H217.796L217.772 27.96C217.244 28.04 216.708 28.08 216.164 28.08C215.62 28.08 215.1 28.048 214.604 27.984L214.58 30.84ZM228.06 29.064C227.58 29.064 227.34 28.824 227.34 28.344L226.572 16.944C226.572 16.464 226.804 16.224 227.268 16.224H231.156C231.636 16.224 231.868 16.464 231.852 16.944L231.132 28.344C231.132 28.824 230.892 29.064 230.412 29.064H228.06ZM229.116 34.896C228.508 34.896 227.988 34.68 227.556 34.248C227.14 33.832 226.932 33.32 226.932 32.712C226.932 32.104 227.14 31.592 227.556 31.176C227.988 30.744 228.508 30.528 229.116 30.528C229.724 30.528 230.236 30.744 230.652 31.176C231.084 31.592 231.3 32.104 231.3 32.712C231.3 33.32 231.084 33.832 230.652 34.248C230.236 34.68 229.724 34.896 229.116 34.896Z" fill="white"/>
</svg>
