<svg width="254" height="52" viewBox="0 0 254 52" fill="none" xmlns="http://www.w3.org/2000/svg">
<rect width="254" height="52" rx="15" fill="#51CE54"/>
<path d="M50.5895 24.57H65.5625V27.008H50.5895V24.57ZM48.3585 30.987H67.6325V33.494H48.3585V30.987ZM50.5895 16.497H65.4015V18.981H53.6255V25.582H50.5895V16.497ZM84.2597 14.726H87.3647V36.093H84.2597V14.726ZM80.4417 18.981H85.9617V21.465H80.4417V18.981ZM80.4417 24.156H85.9617V26.686H80.4417V24.156ZM74.4387 16.382H76.8997V19.464C76.8997 24.823 75.0827 29.745 71.1037 31.746L69.1947 29.308C72.8287 27.629 74.4387 23.512 74.4387 19.464V16.382ZM75.0827 16.382H77.5207V19.464C77.5207 23.558 79.0617 27.514 82.5807 29.101L80.7407 31.539C76.7617 29.584 75.0827 24.823 75.0827 19.464V16.382ZM92.9059 24.248H107.879V26.686H92.9059V24.248ZM90.6749 31.148H109.949V33.655H90.6749V31.148ZM98.7479 25.352H101.807V31.953H98.7479V25.352ZM92.9059 16.198H107.718V18.659H95.9649V25.306H92.9059V16.198ZM117.735 16.336H125.463V18.774H117.735V16.336ZM119.621 21.258H122.427V26.41H119.621V21.258ZM123.968 16.336H126.82V17.716C126.82 19.234 126.82 21.281 126.36 23.88L123.531 23.627C123.968 21.051 123.968 19.211 123.968 17.716V16.336ZM117.022 27.859L116.723 25.421C119.552 25.421 124.083 25.352 127.372 24.938L127.533 27.1C124.152 27.767 119.828 27.859 117.022 27.859ZM132.547 14.749H135.445V30.803H132.547V14.749ZM130.27 21.051H133.513V23.535H130.27V21.051ZM128.223 15.163H131.075V30.343H128.223V15.163ZM120.219 33.241H135.928V35.679H120.219V33.241ZM120.219 29.216H123.324V34.046H120.219V29.216ZM151.865 14.749H154.924V25.559H151.865V14.749ZM153.705 19.188H157.753V21.672H153.705V19.188ZM140.043 33.218H141.216C143.079 33.218 144.712 33.103 146.276 32.574L146.736 34.943C144.965 35.564 143.309 35.679 141.216 35.679H140.043V33.218ZM140.043 27.376H143.01V33.908H140.043V27.376ZM145.977 27.652H156.626V29.837H145.977V27.652ZM151.313 30.343C153.705 30.343 155.407 31.47 155.407 33.195C155.407 34.943 153.705 36.07 151.313 36.07C148.898 36.07 147.196 34.943 147.196 33.195C147.196 31.47 148.898 30.343 151.313 30.343ZM151.313 32.367C150.554 32.367 149.956 32.62 149.956 33.195C149.956 33.793 150.554 34.046 151.313 34.046C152.049 34.046 152.647 33.793 152.647 33.195C152.647 32.62 152.049 32.367 151.313 32.367ZM149.841 26.088H152.808V29.193H149.841V26.088ZM142.941 18.13H145.402V18.889C145.402 22.27 143.447 25.145 139.307 26.088L137.973 23.742C141.423 22.983 142.941 20.959 142.941 18.889V18.13ZM143.539 18.13H146V18.889C146 20.706 147.518 22.523 150.899 23.213L149.634 25.536C145.517 24.685 143.539 22.017 143.539 18.889V18.13ZM138.755 16.589H150.186V19.004H138.755V16.589ZM142.941 14.68H146V17.854H142.941V14.68ZM165.019 16.221C168.262 16.221 170.608 19.165 170.608 23.811C170.608 28.503 168.262 31.447 165.019 31.447C161.776 31.447 159.43 28.503 159.43 23.811C159.43 19.165 161.776 16.221 165.019 16.221ZM165.019 19.004C163.432 19.004 162.374 20.683 162.374 23.811C162.374 26.985 163.432 28.687 165.019 28.687C166.606 28.687 167.687 26.985 167.687 23.811C167.687 20.683 166.606 19.004 165.019 19.004ZM172.931 14.749H176.013V36.047H172.931V14.749ZM175.323 22.776H179.095V25.306H175.323V22.776ZM184.728 25.559H187.764V31.539H184.728V25.559ZM192.456 25.559H195.515V31.539H192.456V25.559ZM180.496 31.102H199.77V33.586H180.496V31.102ZM190.11 15.784C194.687 15.784 198.068 18.038 198.068 21.511C198.068 24.984 194.687 27.215 190.11 27.215C185.51 27.215 182.152 24.984 182.152 21.511C182.152 18.038 185.51 15.784 190.11 15.784ZM190.11 18.176C187.143 18.176 185.165 19.395 185.165 21.511C185.165 23.604 187.143 24.846 190.11 24.846C193.077 24.846 195.055 23.604 195.055 21.511C195.055 19.395 193.077 18.176 190.11 18.176ZM203.047 28.6094L202.856 17.7944H205.439L205.237 28.6094H203.047ZM204.148 34.1572C203.699 34.1572 203.324 34.015 203.025 33.7305C202.733 33.4385 202.587 33.0716 202.587 32.6299C202.587 32.1882 202.733 31.825 203.025 31.5405C203.324 31.2485 203.699 31.1025 204.148 31.1025C204.605 31.1025 204.979 31.2485 205.271 31.5405C205.563 31.825 205.709 32.1882 205.709 32.6299C205.709 33.0716 205.563 33.4385 205.271 33.7305C204.979 34.015 204.605 34.1572 204.148 34.1572Z" fill="white"/>
</svg>
